<mxfile host="app.diagrams.net" modified="2024-01-29T02:20:24.070Z" agent="Mozilla/5.0 (Windows NT 10.0; Win64; x64) AppleWebKit/537.36 (KHTML, like Gecko) Chrome/120.0.0.0 Safari/537.36" version="23.0.2" etag="sVKwUM-XgmjoYjWOHF8c" type="github">
  <diagram name="페이지-1" id="LKJVq1st19EjTyVKlVIr">
    <mxGraphModel>
      <root>
        <mxCell id="0" />
        <mxCell id="1" parent="0" />
      </root>
    </mxGraphModel>
  </diagram>
</mxfile>
